<svg enable-background="new 0 0 32 32" height="512" viewBox="0 0 32 32" width="512" xmlns="http://www.w3.org/2000/svg"><g id="BG"><path d="m26 32h-20c-3.314 0-6-2.686-6-6v-20c0-3.314 2.686-6 6-6h20c3.314 0 6 2.686 6 6v20c0 3.314-2.686 6-6 6z" fill="#f5e6fe"/></g><g id="bold"><g fill="#be63f9"><path d="m16.667 15.005c0-.367-.3-.667-.667-.667s-.667.3-.667.667v.833h1.333v-.833z"/><path d="m23.46 14.705-1.267-1.267v-1.787c0-1.013-.827-1.84-1.84-1.84h-1.787l-1.266-1.266c-.693-.693-1.907-.693-2.6 0l-1.267 1.267h-1.787c-1.013 0-1.84.827-1.84 1.84v1.787l-1.266 1.266c-.347.347-.54.813-.54 1.3s.193.953.54 1.3l1.267 1.267v1.787c0 1.013.827 1.84 1.84 1.84h1.787l1.267 1.267c.347.347.813.54 1.3.54s.953-.193 1.3-.54l1.267-1.267h1.787c1.013 0 1.84-.827 1.84-1.84v-1.787l1.267-1.267c.347-.347.54-.813.54-1.3-.002-.487-.195-.953-.542-1.3zm-8.127 2.133v1.333c0 .273-.227.5-.5.5s-.5-.227-.5-.5v-3.167c0-.92.747-1.667 1.667-1.667s1.667.747 1.667 1.667v3.167c0 .273-.227.5-.5.5s-.5-.227-.5-.5v-1.333z"/></g></g></svg>